Coordinates
version=1
nRows=11
nColumns=46
inDegrees=yes

Units are S.I. units (second, meters, Newtons, ...)
Angles are in degrees.

endheader
time	pelvis_tilt	pelvis_list	pelvis_rotation	pelvis_tx	pelvis_ty	pelvis_tz	bb_angle	bb_tx	bb_ty	bb_tz	hip_flexion_r	hip_adduction_r	hip_rotation_r	knee_angle_r	knee_angle_r_beta	ankle_angle_r	subtalar_angle_r	mtp_angle_r	crank_angle_r	hip_flexion_l	hip_adduction_l	hip_rotation_l	knee_angle_l	knee_angle_l_beta	ankle_angle_l	subtalar_angle_l	mtp_angle_l	crank_angle_l	lumbar_extension	lumbar_bending	lumbar_rotation	arm_flex_r	arm_add_r	arm_rot_r	elbow_flex_r	pro_sup_r	wrist_flex_r	wrist_dev_r	arm_flex_l	arm_add_l	arm_rot_l	elbow_flex_l	pro_sup_l	wrist_flex_l	wrist_dev_l
      5.00500000	    -18.33918164	      6.09498414	      5.61994392	      0.17202292	      1.14846912	     -0.20747261	      0.00000000	      0.50000000	      0.00000000	      0.25000000	     55.24620861	     -8.60632631	      7.62881817	     76.94482379	      1.34294052	     -9.35707314	    -14.29460072	      0.00000000	      0.00000000	     66.21726260	      4.13359173	      2.32742465	     56.22062061	      0.98123494	      5.45432091	     -6.42711546	      0.00000000	      0.00000000	    -60.81504190	     -4.35189492	     -6.00364111	     89.28898540	    -18.13371642	     36.64043381	     42.96384027	     37.74328112	      0.00000000	      0.00000000	     89.70689948	     -5.65284649	     29.31795590	     52.87004339	     25.49660224	      0.00000000	      0.00000000
      5.01000000	    -18.49283425	      5.75135793	      5.02683478	      0.17274544	      1.14553395	     -0.20803589	      0.00000000	      0.50000000	      0.00000000	      0.25000000	     56.90944296	     -8.00664390	      7.91017341	     79.76536750	      1.39216829	     -8.05912572	    -13.18283840	      0.00000000	      0.00000000	     65.20834737	      3.54569060	      2.31245473	     54.16709205	      0.94539410	      4.13609819	     -6.87329061	      0.00000000	      0.00000000	    -60.53869588	     -4.42243574	     -5.26583114	     89.21472320	    -18.86217572	     36.74436185	     44.01662659	     37.97226243	      0.00000000	      0.00000000	     89.69477033	     -5.68262455	     29.77887329	     52.95432645	     25.57167883	      0.00000000	      0.00000000
      5.01500000	    -18.35168567	      5.14769568	      4.47641324	      0.17366806	      1.14317544	     -0.20876234	      0.00000000	      0.50000000	      0.00000000	      0.25000000	     58.14226374	     -7.22949124	      7.88670073	     82.38415203	      1.43787470	     -7.23369025	    -12.80169841	      0.00000000	      0.00000000	     63.87340874	      2.90918523	      2.67322499	     52.19309216	      0.91094130	      3.15406520	     -7.06167670	      0.00000000	      0.00000000	    -60.52953855	     -4.18191894	     -4.11659025	     89.17829404	    -20.51039384	     38.19237974	     45.92494126	     38.67300663	      0.00000000	      0.00000000	     89.69159028	     -5.68636997	     30.33072853	     52.88115382	     25.79278269	      0.00000000	      0.00000000
      5.02000000	    -18.20995631	      4.57986598	      3.75412274	      0.17470833	      1.14088119	     -0.20930996	      0.00000000	      0.50000000	      0.00000000	      0.25000000	     59.42112160	     -6.32030052	      7.97087261	     84.95935932	      1.48282055	     -6.40421058	    -12.35325873	      0.00000000	      0.00000000	     62.52136681	      2.10055373	      2.87487297	     50.29628444	      0.87783577	      2.17395521	     -7.19370680	      0.00000000	      0.00000000	    -60.43402786	     -4.01430890	     -3.27128192	     89.17087709	    -20.60066823	     38.34187727	     46.47277084	     38.83566774	      0.00000000	      0.00000000	     89.68041982	     -6.03492327	     30.52482691	     52.65733026	     25.82124267	      0.00000000	      0.00000000
      5.02500000	    -17.99689250	      3.88436352	      3.08836587	      0.17578795	      1.13867984	     -0.21011252	      0.00000000	      0.50000000	      0.00000000	      0.25000000	     60.61179537	     -5.41144357	      7.82536482	     87.41524753	      1.52568389	     -5.97903632	    -12.39259954	      0.00000000	      0.00000000	     61.14979580	      1.24619294	      3.19355704	     48.53898549	      0.84716511	      1.33279528	     -6.87745139	      0.00000000	      0.00000000	    -60.39292873	     -3.65254415	     -2.36354550	     89.18586987	    -20.43439971	     38.47356810	     46.68324376	     38.89449366	      0.00000000	      0.00000000	     89.66401296	     -6.40205018	     30.45633729	     52.52489473	     25.80610808	      0.00000000	      0.00000000
      5.03000000	    -17.57100775	      3.16879014	      2.14395392	      0.17695304	      1.13673187	     -0.21050328	      0.00000000	      0.50000000	      0.00000000	      0.25000000	     61.61197549	     -4.25926001	      7.72763061	     89.78288374	      1.56700693	     -5.38468855	    -12.20954520	      0.00000000	      0.00000000	     59.86642036	     -0.15773588	      2.74728486	     47.33877711	      0.82621752	      0.18664571	     -6.33093319	      0.00000000	      0.00000000	    -60.52272981	     -3.46292787	     -1.34302321	     89.22897683	    -20.27013073	     38.66284419	     47.06868393	     38.99166887	      0.00000000	      0.00000000	     89.65070965	     -6.87063382	     30.54272837	     52.20422245	     25.77188850	      0.00000000	      0.00000000
      5.03500000	    -17.38624832	      2.57630053	      1.04825851	      0.17812371	      1.13471906	     -0.21077847	      0.00000000	      0.50000000	      0.00000000	      0.25000000	     62.93669996	     -3.08153286	      7.83494229	     92.05440890	      1.60665253	     -4.78705035	    -11.39117701	      0.00000000	      0.00000000	     58.46266398	     -1.39723623	      2.52398128	     45.70416552	      0.79768817	     -0.71514481	     -5.99342747	      0.00000000	      0.00000000	    -60.43323925	     -3.55530922	      0.08086242	     89.16152553	    -21.55907010	     39.96761229	     48.69034911	     39.52048600	      0.00000000	      0.00000000	     89.66314417	     -7.34864061	     32.09769445	     51.59585897	     25.99367248	      0.00000000	      0.00000000
      5.04000000	    -17.22140076	      1.84471901	      0.18050848	      0.17925668	      1.13312952	     -0.21163093	      0.00000000	      0.50000000	      0.00000000	      0.25000000	     64.20160302	     -2.10257368	      7.54868261	     94.12406199	      1.64277479	     -4.54051329	    -11.26628772	      0.00000000	      0.00000000	     57.02936790	     -2.45818434	      2.66588331	     43.98083588	      0.76761039	     -1.75745019	     -5.67699802	      0.00000000	      0.00000000	    -60.35166733	     -3.27738546	      1.06085458	     89.19299895	    -21.30814118	     40.14720605	     48.96607104	     39.60133488	      0.00000000	      0.00000000	     89.63146790	     -7.81748524	     32.06473011	     51.31638611	     25.99720825	      0.00000000	      0.00000000
      5.04500000	    -17.12339237	      1.44704745	     -0.51171855	      0.17978844	      1.13204797	     -0.21254868	      0.00000000	      0.50000000	      0.00000000	      0.25000000	     65.61607771	     -1.50078804	      7.47057308	     96.09283387	      1.67713634	     -4.42141665	    -11.09829637	      0.00000000	      0.00000000	     55.11315735	     -2.83188781	      3.41714138	     41.28345716	      0.72053225	     -3.36864314	     -6.58753859	      0.00000000	      0.00000000	    -60.25016518	     -3.05170749	      1.80014983	     89.22496484	    -21.18347984	     40.48367762	     49.34934048	     39.72066005	      0.00000000	      0.00000000	     89.63109485	     -8.29667656	     32.67723048	     50.65879123	     26.01566100	      0.00000000	      0.00000000
      5.05000000	    -17.01190741	      0.76599357	     -1.39764754	      0.18048353	      1.13055724	     -0.21360862	      0.00000000	      0.50000000	      0.00000000	      0.25000000	     67.01287475	     -0.64195857	      7.15569071	     97.98599686	      1.71017827	     -4.21065856	    -10.90393927	      0.00000000	      0.00000000	     53.68405662	     -3.83047539	      3.67452253	     39.61903572	      0.69148262	     -4.14377754	     -6.20315653	      0.00000000	      0.00000000	    -60.11833917	     -2.75116167	      2.83182187	     89.26958923	    -20.84849487	     40.65030087	     49.51727262	     39.76840085	      0.00000000	      0.00000000	     89.59307308	     -8.75892185	     32.77734174	     50.39194913	     26.01342139	      0.00000000	      0.00000000
      5.05500000	    -16.76976461	      0.45811374	     -2.35608528	      0.18126101	      1.13012766	     -0.21424730	      0.00000000	      0.50000000	      0.00000000	      0.25000000	     68.23652869	      0.08090043	      7.19801676	     99.70815949	      1.74023567	     -3.84742868	    -10.35220832	      0.00000000	      0.00000000	     51.88216858	     -4.82210913	      3.05313865	     37.58953998	      0.65606124	     -5.31143404	     -5.40874950	      0.00000000	      0.00000000	    -60.07987036	     -2.80426967	      3.53586855	     89.30487385	    -20.35573824	     41.03360163	     49.32107124	     39.75282601	      0.00000000	      0.00000000	     89.60933378	     -9.48731514	     34.35153110	     49.49344978	     26.12522096	      0.00000000	      0.00000000
